FILE "Magical World of Disney on PlayStation, The (E) (Track 1) [SCED-03993].bin" BINARY
  TRACK 01 MODE2/2352
    INDEX 01 00:00:00
FILE "Magical World of Disney on PlayStation, The (E) (Track 2) [SCED-03993].bin" BINARY
  TRACK 02 AUDIO
    INDEX 00 00:00:00
    INDEX 01 00:02:00
FILE "Magical World of Disney on PlayStation, The (E) (Track 3) [SCED-03993].bin" BINARY
  TRACK 03 AUDIO
    INDEX 00 00:00:00
    INDEX 01 00:02:00
